<?xml version="1.0" standalone="no"?>
<!DOCTYPE svg PUBLIC "-//W3C//DTD SVG 20010904//EN"
 "http://www.w3.org/TR/2001/REC-SVG-20010904/DTD/svg10.dtd">
<svg version="1.0" xmlns="http://www.w3.org/2000/svg"
 width="96.000000pt" height="96.000000pt" viewBox="0 0 96.000000 96.000000"
 preserveAspectRatio="xMidYMid meet">
<metadata>
Created by potrace 1.14, written by Peter Selinger 2001-2017
</metadata>
<g transform="translate(0.000000,96.000000) scale(0.100000,-0.100000)"
fill="#000000" stroke="none">
<path d="M243 844 c-32 -16 -63 -66 -63 -102 0 -30 16 -68 38 -89 16 -14 112
-278 112 -306 0 -4 -6 -7 -12 -7 -7 0 -26 -23 -41 -50 -27 -48 -30 -50 -73
-50 l-44 0 0 -70 0 -70 320 0 320 0 0 69 0 70 -47 3 c-45 3 -48 5 -72 51 -19
34 -31 47 -48 47 -22 0 -39 24 -133 195 -18 33 -46 84 -62 113 l-30 52 98 0
c79 0 99 -3 109 -17 9 -12 32 -18 79 -21 62 -4 66 -3 66 17 0 18 -6 21 -40 21
l-40 0 0 60 0 60 40 0 c33 0 40 3 40 20 0 17 -7 20 -52 20 -36 0 -63 -7 -83
-20 -25 -17 -47 -20 -134 -20 -81 0 -108 4 -122 16 -26 23 -88 27 -126 8z"/>
</g>
</svg>
